<?xml version="1.0" encoding="UTF-8"?>
<svg version="1.1" xmlns="http://www.w3.org/2000/svg" width="380" height="420">
<path d="M0 0 C4.2485291 1.92032438 8.24404747 4.24358195 12.265625 6.59375 C13.81793335 7.47585643 15.37135986 8.35599746 16.92578125 9.234375 C20.39847486 11.20450041 23.85939105 13.19391699 27.31640625 15.19140625 C34.04233949 19.06010362 40.84030349 22.79568395 47.640625 26.53125 C56.41914254 31.35653352 65.1783028 36.21201864 73.890625 41.15625 C86.63498506 48.38744956 99.4495688 55.49061377 112.265625 62.59375 C125.44755842 69.89966903 138.62774073 77.20881702 151.765625 84.59375 C152.66635742 85.09729004 153.56708984 85.60083008 154.49511719 86.11962891 C176.18425712 98.34964636 176.18425712 98.34964636 179.265625 107.59375 C179.36574359 110.26537092 179.40906129 112.91101334 179.40606689 115.58283997 C179.41052358 116.81765115 179.41052358 116.81765115 179.4150703 118.07740802 C179.42376649 120.84564224 179.42526632 123.61383326 179.42675781 126.38208008 C179.43138532 128.3629109 179.43640989 130.34374082 179.44180298 132.3245697 C179.45493517 137.71305248 179.4613735 143.1015228 179.46581364 148.49001908 C179.46874295 151.85518643 179.47284749 155.22035035 179.47731781 158.58551598 C179.4909947 169.11046388 179.5006605 179.63540398 179.5045197 190.16036016 C179.50900151 202.31713807 179.52655433 214.47380361 179.5555203 226.63054734 C179.5771233 236.02255828 179.58722324 245.41453757 179.58856082 254.80657309 C179.58960981 260.41825565 179.59553764 266.02983259 179.61338043 271.64148903 C179.62983725 276.92001311 179.6320282 282.19835191 179.62324142 287.47689247 C179.62246978 289.41428625 179.62683052 291.35168989 179.63669968 293.28905869 C179.64938389 295.93416362 179.64356162 298.5786089 179.63311768 301.22370911 C179.64520228 302.37338133 179.64520228 302.37338133 179.65753102 303.54627925 C179.60553722 309.17769734 178.33454921 313.21514899 174.62475586 317.48022461 C169.11805468 322.22510307 163.21217406 325.71222353 156.828125 329.15625 C154.58970066 330.38645842 152.3514235 331.61693468 150.11328125 332.84765625 C148.9752002 333.46914551 147.83711914 334.09063477 146.66455078 334.73095703 C141.34352817 337.64716178 136.05564576 340.62180002 130.765625 343.59375 C128.68507941 344.75944229 126.60434968 345.92480599 124.5234375 347.08984375 C123.49250977 347.66718262 122.46158203 348.24452148 121.39941406 348.83935547 C118.24849443 350.60334024 115.09697629 352.36625143 111.9453125 354.12890625 C101.87358378 359.76309113 91.80901157 365.40917249 81.765625 371.09375 C67.4954098 379.17072124 53.18263108 387.17150263 38.8671875 395.16796875 C36.74990983 396.3514012 34.63272155 397.53499358 32.515625 398.71875 C31.49017578 399.29189941 30.46472656 399.86504883 29.40820312 400.45556641 C21.47926104 404.89511869 13.58623885 409.39560961 5.72363281 413.95166016 C4.91506836 414.41749512 4.10650391 414.88333008 3.2734375 415.36328125 C2.56848145 415.77167236 1.86352539 416.18006348 1.13720703 416.60083008 C-4.74452887 419.72123445 -11.28532609 419.35092578 -17.734375 418.59375 C-22.75548145 416.85658995 -27.17485914 414.27098734 -31.734375 411.59375 C-33.29032385 410.70987154 -34.8477015 409.82850512 -36.40625 408.94921875 C-39.94278333 406.94663236 -43.46841683 404.92626466 -46.98828125 402.89453125 C-52.95988449 399.45384335 -58.96816199 396.08068243 -64.984375 392.71875 C-66.55312378 391.84174438 -66.55312378 391.84174438 -68.15356445 390.94702148 C-70.28387312 389.75641582 -72.41432609 388.56606835 -74.54492188 387.37597656 C-79.77689449 384.45241563 -85.00550334 381.5228523 -90.234375 378.59375 C-96.50693831 375.08046658 -102.77991622 371.56793249 -109.0546875 368.05859375 C-120.0703612 361.89636044 -131.07487998 355.7153941 -142.05761719 349.49462891 C-148.15295761 346.04465366 -154.26195996 342.62011034 -160.37939453 339.20947266 C-164.55033844 336.88093209 -168.71431341 334.54012413 -172.87695312 332.19677734 C-174.70589036 331.1707348 -176.53767231 330.14973648 -178.37304688 329.13525391 C-197.80008 318.396635 -197.80008 318.396635 -200.734375 309.59375 C-200.83876219 306.91415826 -200.88655536 304.26013193 -200.88827515 301.58015442 C-200.8926574 300.75427454 -200.89703965 299.92839466 -200.9015547 299.07748812 C-200.91494765 296.30011024 -200.92112269 293.52276409 -200.92724609 290.74536133 C-200.93514668 288.75792294 -200.94341561 286.77048598 -200.95202637 284.78305054 C-200.97825193 278.24730806 -200.99355476 271.71155915 -201.0078125 265.17578125 C-201.013172 262.92641381 -201.01854951 260.67704642 -201.02394485 258.42767906 C-201.04557454 249.07116279 -201.06431138 239.71464824 -201.07556725 230.35811329 C-201.09180706 216.94654577 -201.12498484 203.53526794 -201.18196809 190.12380964 C-201.22066346 180.69525198 -201.24019949 171.26677183 -201.24548781 161.83813685 C-201.24914185 156.20618195 -201.26116906 150.57453599 -201.29359055 144.94266701 C-201.32366371 139.64270982 -201.32998549 134.34324864 -201.31820679 129.04322433 C-201.31798599 127.10020664 -201.32629607 125.15716599 -201.34386063 123.21422768 C-201.36657675 120.55631154 -201.35824651 117.9001903 -201.34237671 115.24226379 C-201.3562588 114.47775038 -201.37014088 113.71323697 -201.38444364 112.92555648 C-201.29861383 107.07033016 -199.33752072 103.17152468 -195.734375 98.59375 C-192.64004672 95.72286734 -189.34107149 93.66945122 -185.65625 91.6328125 C-184.67333984 91.08625 -183.69042969 90.5396875 -182.67773438 89.9765625 C-181.62392578 89.39648438 -180.57011719 88.81640625 -179.484375 88.21875 C-177.21868234 86.96105938 -174.95305925 85.70324342 -172.6875 84.4453125 C-171.51893193 83.79840917 -170.35031213 83.15159926 -169.18164062 82.50488281 C-163.85588413 79.55233169 -158.54549485 76.57252229 -153.234375 73.59375 C-151.15112506 72.42693442 -149.06779147 71.2602682 -146.984375 70.09375 C-145.953125 69.51625 -144.921875 68.93875 -143.859375 68.34375 C-124.06770833 57.26041667 -104.27604167 46.17708333 -84.484375 35.09375 C-83.4528833 34.51608887 -82.4213916 33.93842773 -81.35864258 33.34326172 C-79.27783948 32.17806402 -77.19694771 31.01302463 -75.1159668 29.84814453 C-68.80898598 26.31734081 -62.50512469 22.78106377 -56.20458984 19.23876953 C-54.11236637 18.06599853 -52.01766115 16.8976432 -49.92041016 15.73388672 C-44.83320388 12.91069181 -39.78813852 10.04342825 -34.80078125 7.046875 C-22.93051083 0.01957823 -13.81300939 -5.20155165 0 0 Z " fill="#00599C" transform="translate(200.734375,1.40625)"/>
<path d="M0 0 C1.30710938 0.02964844 2.61421875 0.05929688 3.9609375 0.08984375 C12.9740876 0.51265743 21.38430471 2.48634254 30 5 C31.06758545 5.30333252 31.06758545 5.30333252 32.15673828 5.61279297 C54.21530184 11.98898128 72.36976921 23.25463282 89 39 C90.34384766 40.24716797 90.34384766 40.24716797 91.71484375 41.51953125 C99.88498825 49.3459109 107.93202344 58.2995763 112 69 C105.03631215 73.86687756 97.76656167 77.99849157 90.3125 82.0625 C83.30106495 85.89972073 76.3231026 89.76195388 69.484375 93.90234375 C67.98136841 94.81197876 67.98136841 94.81197876 66.44799805 95.73999023 C64.56006526 96.89153499 62.67839924 98.05343346 60.80395508 99.22680664 C59.96243896 99.73977295 59.12092285 100.25273926 58.25390625 100.78125 C57.52502197 101.23564453 56.7961377 101.69003906 56.04516602 102.15820312 C53.5565717 103.18251651 52.46669014 102.99487851 50 102 C48.61328125 100.46875 48.61328125 100.46875 47.3125 98.5 C36.66623937 83.62185077 21.43573994 74.67509757 3.54296875 71.359375 C-17.2725175 69.24799161 -35.29231769 73.06743727 -52.0390625 86.328125 C-66.46144693 98.62450057 -75.17316259 114.04656192 -77 133 C-78.05548849 154.06579106 -72.59878035 171.69025033 -58.72265625 187.61328125 C-45.26654504 201.98536762 -28.34337854 208.51818215 -8.96166992 209.38696289 C9.77832127 209.82762837 26.73012028 202.4029659 40.38671875 189.796875 C44.81417982 185.49382193 48.60120123 181.15301748 52 176 C55.97967307 177.23792678 59.54925741 178.68725753 63.203125 180.6875 C64.66057129 181.48099854 64.66057129 181.48099854 66.14746094 182.29052734 C67.17129883 182.85465332 68.19513672 183.4187793 69.25 184 C70.31250977 184.58088379 71.37501953 185.16176758 72.46972656 185.76025391 C75.64961321 187.50121078 78.82536403 189.24949032 82 191 C83.32837891 191.73041504 83.32837891 191.73041504 84.68359375 192.47558594 C89.15223578 194.934045 93.61079022 197.40935393 98.05615234 199.90966797 C99.94597774 200.96969814 101.84185969 202.0182373 103.73828125 203.06640625 C104.83527344 203.68386719 105.93226563 204.30132812 107.0625 204.9375 C108.00222656 205.46214844 108.94195312 205.98679687 109.91015625 206.52734375 C112 208 112 208 113 211 C99.67769862 238.57623223 70.00829361 261.05680442 41.8046875 271.33203125 C5.68108573 283.8559444 -32.79420559 283.67329132 -67.6796875 267.1640625 C-101.855662 250.35795466 -128.35190962 221.69520898 -140.82421875 185.5546875 C-141.21222656 184.38164062 -141.60023438 183.20859375 -142 182 C-142.31582031 181.05382812 -142.63164062 180.10765625 -142.95703125 179.1328125 C-154.24313193 143.43982415 -148.02011107 105.07742164 -131.16015625 72.375 C-113.36189138 39.76304637 -82.44185681 15.68371532 -47.0859375 4.75 C-31.27737597 0.29872802 -16.30163 -0.40013665 0 0 Z " fill="#FEFEFE" transform="translate(198,70)"/>
<path d="M0 0 C4.2485291 1.92032438 8.24404747 4.24358195 12.265625 6.59375 C13.81793335 7.47585643 15.37135986 8.35599746 16.92578125 9.234375 C20.39847486 11.20450041 23.85939105 13.19391699 27.31640625 15.19140625 C34.04233949 19.06010362 40.84030349 22.79568395 47.640625 26.53125 C56.41914254 31.35653352 65.1783028 36.21201864 73.890625 41.15625 C86.63498506 48.38744956 99.4495688 55.49061377 112.265625 62.59375 C125.44755842 69.89966903 138.62774073 77.20881702 151.765625 84.59375 C152.66635742 85.09729004 153.56708984 85.60083008 154.49511719 86.11962891 C157.0993756 87.58811156 159.6855205 89.08325791 162.265625 90.59375 C163.28785156 91.18414062 164.31007813 91.77453125 165.36328125 92.3828125 C166.37261719 92.98867187 167.38195312 93.59453125 168.421875 94.21875 C169.34806641 94.76789063 170.27425781 95.31703125 171.22851562 95.8828125 C171.90076172 96.44742188 172.57300781 97.01203125 173.265625 97.59375 C173.265625 98.91375 173.265625 100.23375 173.265625 101.59375 C172.57339844 101.9748291 171.88117188 102.3559082 171.16796875 102.74853516 C157.48200099 110.29249663 143.87191278 117.93291472 130.3984375 125.85253906 C123.43839 129.93542019 116.42649441 133.87345457 109.265625 137.59375 C108.86472656 136.92730469 108.46382813 136.26085937 108.05078125 135.57421875 C87.93716986 102.96371502 57.89712713 82.62326108 21.265625 72.59375 C-14.82578729 64.11729432 -53.14643268 70.75337783 -84.609375 90.03125 C-86.33350279 91.19569939 -88.0415599 92.38423106 -89.734375 93.59375 C-90.73210937 94.29628906 -91.72984375 94.99882813 -92.7578125 95.72265625 C-122.90728918 117.56823211 -142.73157771 150.51398336 -148.984375 187.15625 C-150.23710833 196.9231355 -149.9755423 206.76855627 -149.734375 216.59375 C-149.70472656 217.90085938 -149.67507812 219.20796875 -149.64453125 220.5546875 C-148.72253229 240.2090068 -141.33383469 259.12222528 -132.734375 276.59375 C-133.70467651 277.12162109 -133.70467651 277.12162109 -134.69458008 277.66015625 C-141.95116426 281.61254696 -149.19385671 285.58935169 -156.421875 289.59375 C-157.28304932 290.07065277 -157.28304932 290.07065277 -158.16162109 290.55718994 C-167.96276653 295.99082992 -177.6649453 301.57730106 -187.30737305 307.2890625 C-188.24234619 307.84078125 -189.17731934 308.3925 -190.140625 308.9609375 C-190.95853516 309.44675293 -191.77644531 309.93256836 -192.61914062 310.43310547 C-194.734375 311.59375 -194.734375 311.59375 -197.734375 312.59375 C-199.20972443 311.59459972 -199.20972443 311.59459972 -200.734375 309.59375 C-201.03347916 306.84783872 -201.14765543 304.32752887 -201.12878418 301.58015442 C-201.13487528 300.75427454 -201.14096639 299.92839466 -201.14724207 299.07748812 C-201.16393939 296.29997419 -201.15908666 293.52291535 -201.15429688 290.74536133 C-201.16163352 288.75791953 -201.17021855 286.770482 -201.17996216 284.78305054 C-201.20223491 279.37580116 -201.20510578 273.96870391 -201.20321465 268.56141496 C-201.20309516 264.04864857 -201.21165091 259.53591467 -201.21999216 255.0231573 C-201.23924875 244.37405886 -201.2421026 233.72503881 -201.23535156 223.07592773 C-201.22871602 212.09175355 -201.25155049 201.10791562 -201.28866529 190.12380964 C-201.31936763 180.69523234 -201.33072152 171.26676314 -201.32682848 161.83813685 C-201.32476072 156.20621069 -201.33024383 150.57454585 -201.35472107 144.94266701 C-201.3769929 139.64267176 -201.37510638 134.34322213 -201.35479355 129.04322433 C-201.35138377 127.10022114 -201.35647117 125.1571812 -201.37077713 123.21422768 C-201.3889934 120.55627274 -201.37620351 117.90016388 -201.35583496 115.24226379 C-201.36835281 114.47775038 -201.38087066 113.71323697 -201.39376783 112.92555648 C-201.29796835 107.0730083 -199.33542338 103.17050545 -195.734375 98.59375 C-192.64004672 95.72286734 -189.34107149 93.66945122 -185.65625 91.6328125 C-184.67333984 91.08625 -183.69042969 90.5396875 -182.67773438 89.9765625 C-181.62392578 89.39648438 -180.57011719 88.81640625 -179.484375 88.21875 C-177.21868234 86.96105938 -174.95305925 85.70324342 -172.6875 84.4453125 C-171.51893193 83.79840917 -170.35031213 83.15159926 -169.18164062 82.50488281 C-163.85588413 79.55233169 -158.54549485 76.57252229 -153.234375 73.59375 C-151.15112506 72.42693442 -149.06779147 71.2602682 -146.984375 70.09375 C-145.953125 69.51625 -144.921875 68.93875 -143.859375 68.34375 C-124.06770833 57.26041667 -104.27604167 46.17708333 -84.484375 35.09375 C-83.4528833 34.51608887 -82.4213916 33.93842773 -81.35864258 33.34326172 C-79.27783948 32.17806402 -77.19694771 31.01302463 -75.1159668 29.84814453 C-68.80898598 26.31734081 -62.50512469 22.78106377 -56.20458984 19.23876953 C-54.11236637 18.06599853 -52.01766115 16.8976432 -49.92041016 15.73388672 C-44.83320388 12.91069181 -39.78813852 10.04342825 -34.80078125 7.046875 C-22.93051083 0.01957823 -13.81300939 -5.20155165 0 0 Z " fill="#659AD1" transform="translate(200.734375,1.40625)"/>
<path d="M0 0 C2.49407017 1.15329281 3.09257271 2.6381748 4.36254883 5.0534668 C22.07864028 36.04563671 53.4317277 57.54434843 87.42504883 67.1159668 C101.99823909 70.67524702 115.811502 71.16983865 130.73754883 70.8034668 C132.69821289 70.75899414 132.69821289 70.75899414 134.69848633 70.71362305 C143.71163642 70.29080937 152.12185354 68.31712426 160.73754883 65.8034668 C161.80513428 65.50013428 161.80513428 65.50013428 162.89428711 65.19067383 C184.96285574 58.81159348 203.08960787 47.54139169 219.73754883 31.8034668 C220.5599707 31.04549805 221.38239258 30.2875293 222.22973633 29.5065918 C230.85018118 21.28897147 237.18509808 11.67702272 243.73754883 1.8034668 C247.57068387 2.39776793 250.4514603 3.52736945 253.84301758 5.39331055 C255.3044519 6.19115967 255.3044519 6.19115967 256.79541016 7.00512695 C257.82819092 7.5779541 258.86097168 8.15078125 259.92504883 8.7409668 C261.53319458 9.62341064 261.53319458 9.62341064 263.17382812 10.52368164 C266.36527448 12.27727589 269.55164731 14.03982449 272.73754883 15.8034668 C274.37529793 16.7037009 276.01329138 17.60349074 277.65161133 18.50268555 C288.44001917 24.44189514 299.1011839 30.5968434 309.73754883 36.8034668 C306.0781705 44.79263588 297.79655162 48.20981823 290.42504883 52.2409668 C288.16844572 53.4894972 285.91193794 54.7381999 283.65551758 55.98706055 C281.92954346 56.93814697 281.92954346 56.93814697 280.16870117 57.90844727 C274.84456693 60.84895744 269.5416056 63.82694456 264.23754883 66.8034668 C262.1569421 67.96904997 260.07621253 69.13441388 257.99536133 70.29956055 C256.96443359 70.87689941 255.93350586 71.45423828 254.87133789 72.04907227 C251.72041826 73.81305703 248.56890011 75.57596823 245.41723633 77.33862305 C235.34550761 82.97280792 225.2809354 88.61888928 215.23754883 94.3034668 C200.96733362 102.38043804 186.65455491 110.38121943 172.33911133 118.37768555 C170.22183366 119.561118 168.10464538 120.74471037 165.98754883 121.9284668 C164.96209961 122.50161621 163.93665039 123.07476562 162.88012695 123.6652832 C154.95118486 128.10483549 147.05816267 132.60532641 139.19555664 137.16137695 C138.38699219 137.62721191 137.57842773 138.09304688 136.74536133 138.57299805 C136.04040527 138.98138916 135.33544922 139.38978027 134.60913086 139.81054688 C128.72739496 142.93095124 122.18659774 142.56064258 115.73754883 141.8034668 C110.71644238 140.06630675 106.29706469 137.48070414 101.73754883 134.8034668 C100.18159998 133.91958834 98.62422233 133.03822192 97.06567383 132.15893555 C93.5291405 130.15634916 90.003507 128.13598145 86.48364258 126.10424805 C80.51203934 122.66356014 74.50376184 119.29039922 68.48754883 115.9284668 C66.91880005 115.05146118 66.91880005 115.05146118 65.31835938 114.15673828 C63.18805071 112.96613262 61.05759773 111.77578515 58.92700195 110.58569336 C53.69502934 107.66213242 48.46642049 104.73256909 43.23754883 101.8034668 C36.96498552 98.29018337 30.69200761 94.77764928 24.41723633 91.26831055 C13.40156262 85.10607724 2.39704385 78.9251109 -8.58569336 72.7043457 C-14.68103378 69.25437045 -20.79003613 65.82982714 -26.9074707 62.41918945 C-31.07841461 60.09064889 -35.24238958 57.74984093 -39.4050293 55.40649414 C-41.23396653 54.3804516 -43.06574848 53.35945328 -44.90112305 52.3449707 C-61.25402366 43.30563019 -61.25402366 43.30563019 -66.26245117 35.8034668 C-64.77745117 35.3084668 -64.77745117 35.3084668 -63.26245117 34.8034668 C-61.60901285 33.94067099 -59.97172035 33.04674532 -58.34448242 32.13549805 C-57.34892334 31.57870361 -56.35336426 31.02190918 -55.32763672 30.44824219 C-54.25425049 29.84359131 -53.18086426 29.23894043 -52.07495117 28.6159668 C-50.96740479 27.99391357 -49.8598584 27.37186035 -48.71875 26.73095703 C-39.02500413 21.26883148 -29.40242278 15.6877384 -19.80541992 10.05737305 C-18.45843018 9.27257568 -18.45843018 9.27257568 -17.08422852 8.47192383 C-15.05504881 7.27211295 -13.0414246 6.04584968 -11.03833008 4.80297852 C-9.97404785 4.15216309 -8.90976562 3.50134766 -7.81323242 2.83081055 C-6.36364136 1.92770142 -6.36364136 1.92770142 -4.88476562 1.00634766 C-2.26245117 -0.1965332 -2.26245117 -0.1965332 0 0 Z " fill="#004482" transform="translate(67.262451171875,278.196533203125)"/>
<path d="M0 0 C0.84071045 0.00749268 1.6814209 0.01498535 2.54760742 0.02270508 C8.45465986 0.12519247 13.9482578 0.51518758 19.625 2.25 C20.70910156 2.56839844 21.79320312 2.88679687 22.91015625 3.21484375 C34.4965299 6.95929748 43.49099074 12.8388707 52.125 21.3125 C52.86387451 22.03578491 52.86387451 22.03578491 53.61767578 22.77368164 C57.07070159 26.31318219 59.33271499 29.9195276 61.625 34.25 C60.97813232 34.60191406 60.33126465 34.95382813 59.66479492 35.31640625 C42.56458431 44.63025308 25.54198792 54.05594325 8.74829102 63.91259766 C1.15314033 68.36846919 -6.47651979 72.76151786 -14.125 77.125 C-14.70152313 77.45413391 -15.27804626 77.78326782 -15.87203979 78.12237549 C-21.99708945 81.61907143 -28.1257373 85.10938211 -34.25860596 88.59234619 C-36.84286428 90.06054596 -39.42596237 91.5307796 -42.00891113 93.00128174 C-43.24163646 93.70231514 -44.47494344 94.40232685 -45.7088623 95.10125732 C-47.42187986 96.07156838 -49.13285937 97.04547481 -50.84375 98.01953125 C-51.81763672 98.57229736 -52.79152344 99.12506348 -53.79492188 99.69458008 C-56.11394057 101.09261832 -58.24660407 102.57988767 -60.375 104.25 C-61.53260628 101.2335495 -62.67389004 98.21116677 -63.8125 95.1875 C-64.13798828 94.33994141 -64.46347656 93.49238281 -64.79882812 92.61914062 C-70.95189822 76.18980914 -69.7266431 56.74670065 -62.64453125 40.69921875 C-53.45211748 22.96493126 -39.14826237 9.51785079 -20.10546875 3.0390625 C-19.20441406 2.77867187 -18.30335938 2.51828125 -17.375 2.25 C-16.14136719 1.89164063 -14.90773437 1.53328125 -13.63671875 1.1640625 C-9.07699878 0.04864281 -4.67630787 -0.05509294 0 0 Z " fill="#659AD1" transform="translate(188.375,139.75)"/>
<path d="M0 0 C3.79714453 1.62997135 7.33330955 3.52572477 10.91796875 5.57421875 C12.51019498 6.47174755 14.10265883 7.36885489 15.6953125 8.265625 C17.00604736 9.00643311 17.00604736 9.00643311 18.34326172 9.76220703 C23.28447539 12.54242314 28.24804452 15.28240822 33.20776367 18.02941895 C42.92210344 23.4123753 52.61718256 28.82487295 62.23046875 34.38671875 C58.20498847 46.25240146 45.09378369 56.41822683 34.2734375 62.00390625 C15.73206682 70.42963824 -2.82079833 72.08022779 -22.28125 65.54296875 C-24.52669533 64.60770247 -26.6290156 63.54161911 -28.76953125 62.38671875 C-29.67832031 61.93941406 -30.58710938 61.49210937 -31.5234375 61.03125 C-42.43436532 55.2699387 -53.41263106 45.718623 -58.76953125 34.38671875 C-58.69360352 32.37060547 -58.69360352 32.37060547 -57.76953125 30.38671875 C-55.55834961 28.77783203 -55.55834961 28.77783203 -52.609375 27.20703125 C-50.96980835 26.31794067 -50.96980835 26.31794067 -49.29711914 25.41088867 C-48.7117337 25.10122162 -48.12634827 24.79155457 -47.52322388 24.47250366 C-44.44311287 22.8430927 -41.38565124 21.1719675 -38.32421875 19.5078125 C-37.69735672 19.16875381 -37.07049469 18.82969513 -36.42463684 18.48036194 C-28.94266754 14.4225695 -21.61943696 10.10067045 -14.28686523 5.77978516 C-12.88803101 4.95679932 -12.88803101 4.95679932 -11.4609375 4.1171875 C-10.64826416 3.63660889 -9.83559082 3.15603027 -8.99829102 2.66088867 C-3.13110782 -0.69334828 -3.13110782 -0.69334828 0 0 Z " fill="#004482" transform="translate(187.76953125,210.61328125)"/>
</svg>
