<!DOCTYPE svg PUBLIC "-//W3C//DTD SVG 1.1//EN" "http://www.w3.org/Graphics/SVG/1.1/DTD/svg11.dtd">
<!-- Uploaded to: SVG Repo, www.svgrepo.com, Transformed by: SVG Repo Mixer Tools -->
<svg width="800px" height="800px" viewBox="0 0 512 512" xmlns="http://www.w3.org/2000/svg" fill="#ffffff" stroke="#ffffff">
<g id="SVGRepo_bgCarrier" stroke-width="0"/>
<g id="SVGRepo_tracerCarrier" stroke-linecap="round" stroke-linejoin="round"/>
<g id="SVGRepo_iconCarrier">
<path fill="#ffffff" d="M251.313 23.844L49.438 140.25l-.376 233.5 202.625 116.406L453.563 373.75l.375-233.5L251.313 23.844zm-1.407 57.062l52.406 30.25v60.5l-52.406 30.25-52.406-30.25v-60.5l52.406-30.25zm-105.344 60.47l52.407 30.25v60.5l-52.407 30.25 52.406 30.25v60.53l-52.407 30.25-52.407-30.25v-60.53l52.406-30.25-52.406-30.25v-60.5l52.406-30.25zm210.313 0l52.406 30.25v60.5l-52.405 30.25 52.406 30.25v60.53l-52.405 30.25-52.406-30.25v-60.53l52.405-30.25-52.406-30.25v-60.5l52.405-30.25zM249.905 202l52.407 30.25v60.5l-52.28 30.188 52.28 30.156v60.53l-52.406 30.25-52.406-30.25v-60.53l52.28-30.156-52.28-30.188v-60.5L249.906 202z"/>
</g>
</svg>